<svg width="20" height="19" viewBox="0 0 20 19" fill="none" xmlns="http://www.w3.org/2000/svg">
<path d="M10.1618 10.2689C10.5887 10.2689 10.9349 9.92272 10.9349 9.49575C10.9349 9.06878 10.5887 8.72266 10.1618 8.72266C9.7348 8.72266 9.38867 9.06878 9.38867 9.49575C9.38867 9.92272 9.7348 10.2689 10.1618 10.2689Z" stroke="#9D9D9D" stroke-width="1.5462" stroke-linecap="round" stroke-linejoin="round"/>
<path d="M10.1618 4.85748C10.5887 4.85748 10.9349 4.51135 10.9349 4.08438C10.9349 3.65741 10.5887 3.31128 10.1618 3.31128C9.7348 3.31128 9.38867 3.65741 9.38867 4.08438C9.38867 4.51135 9.7348 4.85748 10.1618 4.85748Z" stroke="#9D9D9D" stroke-width="1.5462" stroke-linecap="round" stroke-linejoin="round"/>
<path d="M10.1618 15.6805C10.5887 15.6805 10.9349 15.3343 10.9349 14.9074C10.9349 14.4804 10.5887 14.1343 10.1618 14.1343C9.7348 14.1343 9.38867 14.4804 9.38867 14.9074C9.38867 15.3343 9.7348 15.6805 10.1618 15.6805Z" stroke="#9D9D9D" stroke-width="1.5462" stroke-linecap="round" stroke-linejoin="round"/>
</svg>
