<svg width="16" height="17" viewBox="0 0 16 17" fill="none" xmlns="http://www.w3.org/2000/svg">
<path fill-rule="evenodd" clip-rule="evenodd" d="M10.9904 2.09991V1.32681C10.9904 0.900059 11.3367 0.553711 11.7635 0.553711C12.1902 0.553711 12.5366 0.900059 12.5366 1.32681V2.09991H13.3097C13.925 2.09991 14.5149 2.34421 14.9494 2.77946C15.3847 3.21394 15.629 3.80382 15.629 4.4192V13.6964C15.629 14.3118 15.3847 14.9016 14.9494 15.3361C14.5149 15.7714 13.925 16.0157 13.3097 16.0157C10.6324 16.0157 5.16353 16.0157 2.48629 16.0157C1.8709 16.0157 1.28103 15.7714 0.846544 15.3361C0.41129 14.9016 0.166992 14.3118 0.166992 13.6964C0.166992 11.3199 0.166992 6.79571 0.166992 4.4192C0.166992 3.80382 0.41129 3.21394 0.846544 2.77946C1.28103 2.34421 1.8709 2.09991 2.48629 2.09991H3.25939V1.32681C3.25939 0.900059 3.60573 0.553711 4.03248 0.553711C4.45923 0.553711 4.80558 0.900059 4.80558 1.32681V2.09991H10.9904ZM14.0828 6.7385H1.71319V13.6964C1.71319 13.9013 1.79436 14.0984 1.93971 14.243C2.08428 14.3883 2.28142 14.4695 2.48629 14.4695H13.3097C13.5145 14.4695 13.7117 14.3883 13.8562 14.243C14.0016 14.0984 14.0828 13.9013 14.0828 13.6964V6.7385ZM6.35178 12.9233H11.7635C12.1902 12.9233 12.5366 12.5769 12.5366 12.1502C12.5366 11.7234 12.1902 11.3771 11.7635 11.3771H6.35178C5.92503 11.3771 5.57868 11.7234 5.57868 12.1502C5.57868 12.5769 5.92503 12.9233 6.35178 12.9233ZM4.03248 9.83089H9.44417C9.87092 9.83089 10.2173 9.48454 10.2173 9.05779C10.2173 8.63104 9.87092 8.28469 9.44417 8.28469H4.03248C3.60573 8.28469 3.25939 8.63104 3.25939 9.05779C3.25939 9.48454 3.60573 9.83089 4.03248 9.83089ZM13.3097 3.6461H2.48629C2.28142 3.6461 2.08428 3.72728 1.93971 3.87262C1.79436 4.01719 1.71319 4.21433 1.71319 4.4192V5.1923H14.0828V4.4192C14.0828 4.21433 14.0016 4.01719 13.8562 3.87262C13.7117 3.72728 13.5145 3.6461 13.3097 3.6461Z" fill="white"/>
</svg>
