<svg width="9" height="12" viewBox="0 0 9 12" fill="none" xmlns="http://www.w3.org/2000/svg">
<path d="M1.17354 5.2236H8.30561C8.44359 5.2236 8.56303 5.17322 8.66381 5.07237C8.76454 4.97156 8.81512 4.85218 8.81512 4.7142C8.81512 4.57622 8.76457 4.45689 8.66381 4.35594L5.09776 0.789893C4.99701 0.68919 4.87765 0.638672 4.73959 0.638672C4.60153 0.638672 4.48217 0.68919 4.38133 0.789893L0.815284 4.35594C0.714442 4.45678 0.664062 4.57622 0.664062 4.7142C0.664062 4.85215 0.714442 4.97156 0.815284 5.07237C0.916237 5.17322 1.03559 5.2236 1.17354 5.2236Z" fill="#7C74A3"/>
<path d="M8.30561 7.26245H1.17354C1.03548 7.26245 0.916126 7.31286 0.815284 7.41359C0.714442 7.51443 0.664062 7.63379 0.664062 7.77176C0.664062 7.90974 0.714442 8.02918 0.815284 8.12997L4.38133 11.696C4.48229 11.7968 4.60164 11.8473 4.73959 11.8473C4.87754 11.8473 4.99701 11.7968 5.09776 11.696L8.66381 8.12994C8.76454 8.02918 8.81512 7.90974 8.81512 7.77174C8.81512 7.63379 8.76457 7.51443 8.66381 7.41356C8.56305 7.31275 8.44359 7.26245 8.30561 7.26245Z" fill="#7C74A3"/>
</svg>
