<svg width="47" height="47" viewBox="0 0 47 47" fill="none" xmlns="http://www.w3.org/2000/svg">
<rect x="0.358398" y="0.0488281" width="46.2832" height="46.2832" rx="17.3562" fill="#0A0615"/>
<path d="M41.2385 20.1931C40.9249 19.8799 40.4159 19.8799 40.1026 20.1931L38.2055 22.0874C37.7451 15.8632 33.3275 10.6409 27.2592 9.14665C21.1911 7.65215 14.8485 10.2251 11.5428 15.5218C11.3878 15.7648 11.3751 16.0724 11.5099 16.3274C11.6446 16.5824 11.9059 16.7458 12.1945 16.7549C12.4831 16.7643 12.7547 16.618 12.9053 16.3721C15.8218 11.7 21.3994 9.40753 26.7643 10.6761C32.1295 11.9447 36.0854 16.4907 36.5944 21.9728L34.8112 20.1931C34.4961 19.8893 33.9951 19.8934 33.685 20.203C33.3752 20.5124 33.3708 21.0127 33.6753 21.3277L36.8889 24.5364C37.2025 24.8499 37.7112 24.8499 38.0249 24.5364L41.2385 21.3277C41.5524 21.0145 41.5524 20.5062 41.2385 20.1931Z" fill="white"/>
<path d="M35.8232 29.7543C35.4468 29.5202 34.9511 29.6341 34.715 30.009C31.7972 34.6817 26.2171 36.9741 20.8491 35.7055C15.4815 34.437 11.5237 29.8906 11.0148 24.4083L12.7983 26.1883C13.1135 26.4921 13.6148 26.488 13.925 26.1783C14.2349 25.869 14.2394 25.3686 13.9347 25.0537L10.7196 21.845C10.4058 21.5315 9.89691 21.5315 9.58315 21.845L6.36833 25.0537C6.06369 25.3686 6.06781 25.869 6.37804 26.1783C6.68799 26.488 7.18925 26.4921 7.50479 26.1883L9.40242 24.294C9.86336 30.5181 14.2826 35.7405 20.3537 37.2347C26.4249 38.7292 32.77 36.1565 36.0772 30.8595C36.3121 30.4844 36.1985 29.9899 35.8232 29.7543Z" fill="#3BAA34"/>
</svg>
